:SAMPLES-PER-SECOND 30
:FULLY-SPECIFIED
:DEGREES
141
root  52.1364 38.8097 17.9522 0.695694 35.1978 3.14511
RightUpLeg  -21.6063 0.761963 -2.43148
RightLeg  29.0905 5.87311 3.28814
RightFoot  -3.05955 0.401702 -5.82097
RightToes  0.000482159 0.542163 -0.142577
Spine  25.3462 -2.65453 15.2776
Spine1  10.5532 2.02148 -5.79415
HEad  28.9809 18.1912 -10.7926
LeftShoulder1  7.23495 -11.2326 -42.6615
LeftArm  -10.0502 18.0522 -29.6483
LeftForeArm  51.4109 -58.9665 -14.0041
LeftHand  -0.25398 0.0180481 5.50724
RightShoulder  3.91791 7.47979 29.7019
RightArm  -5.4187 -8.0177 38.878
RightForeArm  8.28088 54.0001 14.9131
RightHand  -2.11709 5.19082 -23.2912
LeftUpLeg  -18.2842 -6.73636 9.54894
LeftLeg  15.1498 -5.75306 -1.41594
LeftFoot  0.865911 1.24488 -11.6631
LeftToes  1.06245e-005 4.65855e-005 -8.18503e-006
142
root  53.1706 38.7294 17.3627 1.59269 29.6575 2.74156
RightUpLeg  -23.6654 5.57412 -3.9942
RightLeg  29.175 6.39247 3.61491
RightFoot  -3.01994 0.248394 -3.6951
RightToes  0.000482159 0.542163 -0.142577
Spine  26.6216 -2.65666 14.0719
Spine1  10.4373 2.09064 -6.19716
HEad  26.7436 20.0252 -10.3358
LeftShoulder1  7.19404 -10.9279 -43.3529
LeftArm  -10.7155 18.2128 -29.3689
LeftForeArm  52.626 -61.3519 -15.5417
LeftHand  -0.25398 0.0180481 5.50724
RightShoulder  3.8965 7.6539 28.9404
RightArm  -5.55228 -6.14209 39.6771
RightForeArm  7.53181 54.2797 15.1452
RightHand  -2.19213 5.35429 -23.7351
LeftUpLeg  -18.6942 -3.657 8.7392
LeftLeg  15.7666 -5.59248 -1.36712
LeftFoot  1.14927 1.17023 -10.7368
LeftToes  1.06245e-005 4.65855e-005 -8.18503e-006
143
root  54.1201 38.6275 16.7114 2.95822 24.5723 2.59533
RightUpLeg  -26.4343 9.92486 -6.14295
RightLeg  29.0434 7.42851 4.21371
RightFoot  -2.63696 0.0946236 -1.48629
RightToes  0.000482159 0.542163 -0.142577
Spine  28.3131 -2.53067 11.9911
Spine1  9.88684 1.91423 -6.06922
HEad  24.1272 22.4287 -11.9323
LeftShoulder1  7.2168 -10.834 -43.7971
LeftArm  -11.5841 17.9737 -29.1123
LeftForeArm  53.6722 -63.3157 -17.0156
LeftHand  -0.25398 0.0180481 5.50724
RightShoulder  4.03336 8.10708 28.7457
RightArm  -6.48976 -4.4505 39.9682
RightForeArm  6.83117 54.48 15.3272
RightHand  -2.2095 5.27551 -24.081
LeftUpLeg  -20.7708 1.97766 6.97702
LeftLeg  18.574 -5.31973 -1.67195
LeftFoot  1.13195 1.01721 -9.34922
LeftToes  1.06245e-005 4.65855e-005 -8.18503e-006
144
root  54.9818 38.528 16.0133 4.58256 20.0189 2.68966
RightUpLeg  -29.5411 12.0907 -8.40188
RightLeg  28.6712 9.01545 5.07892
RightFoot  -1.89636 -0.0294456 0.197038
RightToes  0.000482159 0.542163 -0.142577
Spine  30.3095 -2.36273 9.87243
Spine1  8.89397 1.84413 -6.44615
HEad  21.4135 24.2975 -13.3753
LeftShoulder1  7.25116 -11.0411 -43.3595
LeftArm  -12.4683 17.3731 -28.9709
LeftForeArm  54.6982 -64.6061 -18.0837
LeftHand  -0.25398 0.0180481 5.50724
RightShoulder  4.29115 8.57244 29.5626
RightArm  -8.18059 -3.3743 39.8068
RightForeArm  6.29128 54.5811 15.4358
RightHand  -2.32311 5.55439 -24.6506
LeftUpLeg  -23.5801 6.30585 4.96375
LeftLeg  21.2899 -4.52258 -1.61215
LeftFoot  0.612673 0.790455 -7.57683
LeftToes  1.06245e-005 4.65855e-005 -8.18503e-006
145
root  55.7722 38.4477 15.3026 6.09744 16.1547 2.76392
RightUpLeg  -32.0996 10.8107 -9.53506
RightLeg  27.9522 8.62635 4.72166
RightFoot  -1.57455 -0.158737 1.74722
RightToes  0.000482159 0.542163 -0.142577
Spine  32.3648 -2.36548 8.30665
Spine1  8.07965 1.88466 -7.46885
HEad  18.7915 25.3188 -13.7182
LeftShoulder1  7.19738 -11.2495 -42.3711
LeftArm  -13.3082 16.2724 -28.9023
LeftForeArm  55.5167 -65.2914 -18.6713
LeftHand  -0.25398 0.0180481 5.50724
RightShoulder  4.47072 8.75252 30.5239
RightArm  -10.3959 -2.84783 40.1481
RightForeArm  5.98641 54.5128 15.4203
RightHand  -2.57289 6.31303 -25.5059
LeftUpLeg  -26.1733 9.362 3.0399
LeftLeg  22.8915 -3.78182 -1.41959
LeftFoot  0.314586 0.610538 -6.00362
LeftToes  1.06245e-005 4.65855e-005 -8.18503e-006
146
root  56.485 38.3911 14.6042 7.44406 13.2083 2.6459
RightUpLeg  -33.9574 6.02662 -8.57651
RightLeg  27.6042 4.78757 2.47949
RightFoot  -2.30172 -0.226924 2.6642
RightToes  0.000482159 0.542163 -0.142577
Spine  34.1397 -2.44178 7.25771
Spine1  7.86801 1.81719 -8.02406
HEad  17.6173 24.7537 -15.4061
LeftShoulder1  7.08548 -11.2432 -41.6854
LeftArm  -14.2293 14.6926 -28.8024
LeftForeArm  55.3834 -65.5393 -18.9431
LeftHand  -0.25398 0.0180481 5.50724
RightShoulder  4.48671 8.723 30.7435
RightArm  -12.6109 -2.74317 41.1827
RightForeArm  5.62621 54.2993 15.3212
RightHand  -2.85741 7.16384 -26.3809
LeftUpLeg  -28.5251 12.0464 1.17193
LeftLeg  23.605 -3.50045 -1.33891
LeftFoot  0.60198 0.502741 -4.84324
LeftToes  1.06245e-005 4.65855e-005 -8.18503e-006
147
root  57.0945 38.3531 13.9264 8.86793 11.009 2.36394
RightUpLeg  -36.0324 -0.8236 -5.68469
RightLeg  28.9984 -0.157327 -0.344821
RightFoot  -3.55622 -0.152382 1.86388
RightToes  0.000482159 0.542163 -0.142577
Spine  35.4593 -2.24428 6.53988
Spine1  8.03871 1.71532 -7.51616
HEad  16.1078 23.6297 -17.0653
LeftShoulder1  7.03308 -11.1847 -41.531
LeftArm  -15.3758 13.1131 -28.7358
LeftForeArm  54.0227 -65.5242 -19.0868
LeftHand  -0.25398 0.0180481 5.50724
RightShoulder  4.4534 8.72052 30.4754
RightArm  -14.1681 -3.08645 41.991
RightForeArm  4.93651 53.8164 15.0912
RightHand  -3.06225 7.78348 -26.9244
LeftUpLeg  -31.0633 13.7986 -0.4684
LeftLeg  23.944 -2.98609 -1.11417
LeftFoot  1.14622 0.406974 -3.78365
LeftToes  1.06245e-005 4.65855e-005 -8.18503e-006
148
root  57.5933 38.3013 13.2806 10.2777 9.12244 1.98182
RightUpLeg  -38.3686 -7.2666 -1.99277
RightLeg  32.1934 -3.60464 -2.69106
RightFoot  -4.41804 -0.0371405 0.131867
RightToes  0.000482159 0.542163 -0.142577
Spine  36.5677 -1.77672 6.12632
Spine1  8.18017 1.82036 -6.76409
HEad  14.7076 22.1519 -17.4152
LeftShoulder1  7.05575 -11.2463 -41.4882
LeftArm  -16.7329 12.0931 -28.7696
LeftForeArm  52.5302 -65.549 -19.2908
LeftHand  -0.25398 0.0180481 5.50724
RightShoulder  4.48133 8.79806 30.4723
RightArm  -14.7218 -3.70974 41.9764
RightForeArm  4.37751 52.8169 14.5637
RightHand  -3.12316 8.05436 -26.909
LeftUpLeg  -33.6899 14.4245 -1.60989
LeftLeg  24.2884 -1.89642 -0.599154
LeftFoot  1.59044 0.296209 -2.69817
LeftToes  1.06245e-005 4.65855e-005 -8.18503e-006
149
root  57.9994 38.1955 12.6756 11.3562 7.50978 1.54981
RightUpLeg  -39.7081 -11.4145 1.03202
RightLeg  35.2171 -5.68128 -4.54484
RightFoot  -4.93442 0.0236111 -1.0165
RightToes  0.000482159 0.542163 -0.142577
Spine  37.7847 -1.47629 6.06369
Spine1  8.36547 2.02592 -6.55566
HEad  13.6677 20.4822 -16.4773
LeftShoulder1  7.04904 -11.2968 -41.2929
LeftArm  -18.0596 11.6921 -28.7386
LeftForeArm  52.2257 -65.8622 -19.6664
LeftHand  -0.25398 0.0180481 5.50724
RightShoulder  4.56882 8.88735 30.9211
RightArm  -14.5395 -4.13968 41.5312
RightForeArm  4.67655 51.2662 13.7052
RightHand  -3.0392 7.94213 -26.4279
LeftUpLeg  -36.1078 14.8728 -2.42341
LeftLeg  24.8989 -0.964569 -0.153127
LeftFoot  1.94936 0.188289 -1.71764
LeftToes  1.06245e-005 4.65855e-005 -8.18503e-006
150
root  58.3229 38.0252 12.095 12.269 6.47794 1.2181
RightUpLeg  -40.0424 -13.135 2.65007
RightLeg  36.4038 -6.77038 -5.5922
RightFoot  -6.0512 0.0323967 -1.60034
RightToes  0.000482159 0.542163 -0.142577
Spine  39.033 -1.5518 6.22669
Spine1  8.72123 2.01656 -6.59357
HEad  12.6384 18.5734 -15.4652
LeftShoulder1  7.00485 -11.2581 -41.1297
LeftArm  -18.9769 11.5871 -28.3832
LeftForeArm  52.8 -66.2995 -20.0825
LeftHand  -0.25398 0.0180481 5.50724
RightShoulder  4.65735 8.97254 31.3839
RightArm  -14.3403 -4.21603 41.2181
RightForeArm  5.80741 49.477 12.731
RightHand  -2.88823 7.5682 -25.8653
LeftUpLeg  -38.5611 15.4483 -3.34313
LeftLeg  25.7882 -0.651109 -0.00639124
LeftFoot  2.34126 0.0893643 -0.863514
LeftToes  1.06245e-005 4.65855e-005 -8.18503e-006
151
root  58.578 37.8146 11.4966 13.5475 5.87366 0.984846
RightUpLeg  -41.163 -13.1361 3.32868
RightLeg  36.1429 -6.90973 -5.65626
RightFoot  -7.39793 0.0267301 -2.22249
RightToes  0.000482159 0.542163 -0.142577
Spine  40.2697 -1.67279 6.50733
Spine1  8.70312 1.87089 -6.31723
HEad  11.4649 16.0177 -15.1218
LeftShoulder1  7.08509 -11.3582 -41.3364
LeftArm  -19.2279 11.6576 -27.5534
LeftForeArm  52.9889 -66.5472 -20.3437
LeftHand  -0.25398 0.0180481 5.50724
RightShoulder  4.68395 9.01904 31.4581
RightArm  -14.5954 -4.37193 41.0268
RightForeArm  7.02835 47.9595 11.9475
RightHand  -2.79673 7.3018 -25.5829
LeftUpLeg  -41.5044 15.4299 -4.25142
LeftLeg  26.6977 -0.246634 0.204103
LeftFoot  2.78606 0.0037024 -0.165741
LeftToes  1.06245e-005 4.65855e-005 -8.18503e-006
